REM DIRINDEX 1\8,1\2\11,1\3\12,1\3\14,1\5\15,1\5\16,1\6\17,1\6\18,1\4\19,1\4\20,1\4\21,1\4\22,1\7\23,1\7\24,1\7\25,1\2\9\26,1\2\9\27,1\2\10\28,1\2\10\29,1\2\10\30,1\2\10\31,1\2\10\32,1\3\13\33,1\3\13\34,1\3\13\35
REM DIRNAME folder01,folder02,folder03,folder04,folder05,folder06,folder07,folder08,folder09,folder10,folder11,folder12,folder13,folder14,folder15,folder16,folder17,folder18,folder19,folder20,folder21,folder22,folder23,folder24,folder25,folder26,folder27,folder28,folder29,folder30,folder31,folder32,folder33,folder34,folder35
TITLE ""
FILE "117 117_UNIT7_SET1.mp3" MP3
  TRACK 01 AUDIO
    TITLE "14:cjc123_2360"
    INDEX 01 00:00:00
  TRACK 02 AUDIO
    TITLE "0:"
    INDEX 01 00:02:36
  TRACK 03 AUDIO
    TITLE "33:cjc123_2361"
    INDEX 01 00:03:17
  TRACK 04 AUDIO
    TITLE "0:"
    INDEX 01 00:04:27
  TRACK 05 AUDIO
    TITLE "34:cjc123_2362"
    INDEX 01 00:04:62
  TRACK 06 AUDIO
    TITLE "0:"
    INDEX 01 00:06:02
  TRACK 07 AUDIO
    TITLE "35:cjc123_2363"
    INDEX 01 00:06:51
  TRACK 08 AUDIO
    TITLE "0:"
    INDEX 01 00:10:41
  TRACK 09 AUDIO
    TITLE "33:cjc123_2364"
    INDEX 01 00:11:31
  TRACK 10 AUDIO
    TITLE "0:"
    INDEX 01 00:12:48
  TRACK 11 AUDIO
    TITLE "34:cjc123_2365"
    INDEX 01 00:13:02
  TRACK 12 AUDIO
    TITLE "0:"
    INDEX 01 00:14:15
  TRACK 13 AUDIO
    TITLE "35:cjc123_2366"
    INDEX 01 00:14:70
  TRACK 14 AUDIO
    TITLE "0:"
    INDEX 01 00:20:61
  TRACK 15 AUDIO
    TITLE "33:cjc123_2367"
    INDEX 01 00:21:37
  TRACK 16 AUDIO
    TITLE "0:"
    INDEX 01 00:22:66
  TRACK 17 AUDIO
    TITLE "34:cjc123_2368"
    INDEX 01 00:23:24
  TRACK 18 AUDIO
    TITLE "0:"
    INDEX 01 00:24:59
  TRACK 19 AUDIO
    TITLE "35:cjc123_2369"
    INDEX 01 00:25:43
  TRACK 20 AUDIO
    TITLE "0:"
    INDEX 01 00:30:42
  TRACK 21 AUDIO
    TITLE "33:cjc123_2370"
    INDEX 01 00:31:20
  TRACK 22 AUDIO
    TITLE "0:"
    INDEX 01 00:32:31
  TRACK 23 AUDIO
    TITLE "34:cjc123_2371"
    INDEX 01 00:32:62
  TRACK 24 AUDIO
    TITLE "0:"
    INDEX 01 00:34:02
  TRACK 25 AUDIO
    TITLE "35:cjc123_2372"
    INDEX 01 00:34:47
  TRACK 26 AUDIO
    TITLE "0:"
    INDEX 01 00:38:41
  TRACK 27 AUDIO
    TITLE "33:cjc123_2373"
    INDEX 01 00:39:15
  TRACK 28 AUDIO
    TITLE "0:"
    INDEX 01 00:40:15
  TRACK 29 AUDIO
    TITLE "34:cjc123_2374"
    INDEX 01 00:40:30
  TRACK 30 AUDIO
    TITLE "0:"
    INDEX 01 00:41:26
  TRACK 31 AUDIO
    TITLE "35:cjc123_2375"
    INDEX 01 00:42:02
  TRACK 32 AUDIO
    TITLE "0:"
    INDEX 01 00:46:31
  TRACK 33 AUDIO
    TITLE "33:cjc123_2376"
    INDEX 01 00:47:07
  TRACK 34 AUDIO
    TITLE "0:"
    INDEX 01 00:48:10
  TRACK 35 AUDIO
    TITLE "34:cjc123_2377"
    INDEX 01 00:48:34
  TRACK 36 AUDIO
    TITLE "0:"
    INDEX 01 00:49:39
  TRACK 37 AUDIO
    TITLE "35:cjc123_2378"
    INDEX 01 00:50:15
  TRACK 38 AUDIO
    TITLE "0:"
    INDEX 01 00:54:72
  TRACK 39 AUDIO
    TITLE "33:cjc123_2379"
    INDEX 01 00:55:48
  TRACK 40 AUDIO
    TITLE "0:"
    INDEX 01 00:56:59
  TRACK 41 AUDIO
    TITLE "34:cjc123_2380"
    INDEX 01 00:57:09
  TRACK 42 AUDIO
    TITLE "0:"
    INDEX 01 00:58:13
  TRACK 43 AUDIO
    TITLE "35:cjc123_2381"
    INDEX 01 00:58:64
  TRACK 44 AUDIO
    TITLE "0:"
    INDEX 01 01:03:45
  TRACK 45 AUDIO
    TITLE "33:cjc123_2382"
    INDEX 01 01:04:19
  TRACK 46 AUDIO
    TITLE "0:"
    INDEX 01 01:05:38
  TRACK 47 AUDIO
    TITLE "34:cjc123_2383"
    INDEX 01 01:05:64
  TRACK 48 AUDIO
    TITLE "0:"
    INDEX 01 01:07:02
  TRACK 49 AUDIO
    TITLE "35:cjc123_2384"
    INDEX 01 01:07:63
  TRACK 50 AUDIO
    TITLE "0:"
    INDEX 01 01:11:68
  TRACK 51 AUDIO
    TITLE "33:cjc123_2385"
    INDEX 01 01:12:44
  TRACK 52 AUDIO
    TITLE "0:"
    INDEX 01 01:14:00
  TRACK 53 AUDIO
    TITLE "34:cjc123_2386"
    INDEX 01 01:14:27
  TRACK 54 AUDIO
    TITLE "0:"
    INDEX 01 01:15:52
  TRACK 55 AUDIO
    TITLE "35:cjc123_2387"
    INDEX 01 01:16:22
  TRACK 56 AUDIO
    TITLE "0:"
    INDEX 01 01:20:42
  TRACK 57 AUDIO
    TITLE "33:cjc123_2388"
    INDEX 01 01:21:16
  TRACK 58 AUDIO
    TITLE "0:"
    INDEX 01 01:22:17
  TRACK 59 AUDIO
    TITLE "34:cjc123_2389"
    INDEX 01 01:22:42
  TRACK 60 AUDIO
    TITLE "0:"
    INDEX 01 01:23:52
  TRACK 61 AUDIO
    TITLE "35:cjc123_2390"
    INDEX 01 01:24:24
  TRACK 62 AUDIO
    TITLE "0:"
    INDEX 01 01:28:67
  TRACK 63 AUDIO
    TITLE "33:cjc123_2391"
    INDEX 01 01:29:56
  TRACK 64 AUDIO
    TITLE "0:"
    INDEX 01 01:31:00
  TRACK 65 AUDIO
    TITLE "34:cjc123_2392"
    INDEX 01 01:31:20
  TRACK 66 AUDIO
    TITLE "0:"
    INDEX 01 01:32:43
  TRACK 67 AUDIO
    TITLE "35:cjc123_2393"
    INDEX 01 01:33:21
  TRACK 68 AUDIO
    TITLE "0:"
    INDEX 01 01:38:36
  TRACK 69 AUDIO
    TITLE "33:cjc123_2394"
    INDEX 01 01:39:25
  TRACK 70 AUDIO
    TITLE "0:"
    INDEX 01 01:40:36
  TRACK 71 AUDIO
    TITLE "34:cjc123_2395"
    INDEX 01 01:40:56
  TRACK 72 AUDIO
    TITLE "0:"
    INDEX 01 01:41:67
  TRACK 73 AUDIO
    TITLE "35:cjc123_2396"
    INDEX 01 01:42:39
  TRACK 74 AUDIO
    TITLE "0:"
    INDEX 01 01:47:72
  TRACK 75 AUDIO
    TITLE "33:cjc123_2397"
    INDEX 01 01:48:50
  TRACK 76 AUDIO
    TITLE "0:"
    INDEX 01 01:49:61
  TRACK 77 AUDIO
    TITLE "34:cjc123_2398"
    INDEX 01 01:50:11
  TRACK 78 AUDIO
    TITLE "0:"
    INDEX 01 01:51:17
  TRACK 79 AUDIO
    TITLE "35:cjc123_2399"
    INDEX 01 01:51:64
  TRACK 80 AUDIO
    TITLE "0:"
    INDEX 01 01:55:63
  TRACK 81 AUDIO
    TITLE "33:cjc123_2400"
    INDEX 01 01:56:41
  TRACK 82 AUDIO
    TITLE "0:"
    INDEX 01 01:57:51
  TRACK 83 AUDIO
    TITLE "34:cjc123_2401"
    INDEX 01 01:58:05
  TRACK 84 AUDIO
    TITLE "0:"
    INDEX 01 01:59:22
  TRACK 85 AUDIO
    TITLE "35:cjc123_2402"
    INDEX 01 01:59:63
  TRACK 86 AUDIO
    TITLE "0:"
    INDEX 01 02:05:09
  TRACK 87 AUDIO
    TITLE "33:cjc123_2403"
    INDEX 01 02:05:58
  TRACK 88 AUDIO
    TITLE "0:"
    INDEX 01 02:06:69
  TRACK 89 AUDIO
    TITLE "34:cjc123_2404"
    INDEX 01 02:07:24
  TRACK 90 AUDIO
    TITLE "0:"
    INDEX 01 02:08:21
  TRACK 91 AUDIO
    TITLE "35:cjc123_2405"
    INDEX 01 02:08:74
  TRACK 92 AUDIO
    TITLE "0:"
    INDEX 01 02:14:63
